<svg xmlns="http://www.w3.org/2000/svg" viewBox="0 0 90 90"><g fill="none"><path fill="#B8D995" d="M45.155.025c-.033.034-1.094.1-2.34.167-1.245.05-2.49.134-2.776.168-.27.05-1.077.167-1.767.267-3.282.468-7.49 1.656-10.738 3.043A45.53 45.53 0 0 0 3.787 27.014C1.867 31.28.52 36.462.117 41.027-.1 43.57 0 48.97.304 50.56c.033.167.117.736.168 1.237.084.753.522 2.793 1.027 4.766.05.184.134.585.185.87.05.3.151.552.219.552.067 0 .134.1.134.234 0 .518.943 3.093 1.111 2.993.1-.05.118-.017.067.067-.151.25.286 1.254.472 1.103.067-.083.084-.033.016.084-.084.134.085.72.421 1.421.572 1.238 2.541 4.816 2.844 5.184.101.117.489.686.859 1.271.64 1.003 2.827 3.78 3.787 4.833 6.547 7.04 14.39 11.655 23.293 13.729 1.161.267 2.474.535 2.911.602.455.05.993.133 1.178.184 2.188.418 11.075.418 12.74-.017.136-.05.523-.117.842-.167 2.794-.435 7.204-1.64 9.257-2.525.487-.2.993-.4 1.128-.451.32-.134 2.038-.988 2.558-1.271.219-.117.505-.251.638-.301.32-.134 2.759-1.688 3.313-2.107.236-.184.54-.401.674-.485.438-.284 2.19-1.739 2.625-2.174.202-.2.472-.434.606-.518.319-.2 2.996-2.976 3.718-3.848.287-.351.657-.77.824-.937.37-.368 1.934-2.408 2.407-3.144.202-.301.489-.686.64-.853.32-.368 1.498-2.092 1.987-2.894.218-.368.523-.837.674-1.037.32-.435 1.295-2.208 1.565-2.844.135-.318.354-.77.487-1.003.32-.552 1.162-2.308 1.48-3.077.135-.318.303-.636.37-.72.17-.2.842-2.225 1.027-3.11.118-.585.253-1.187.303-1.338.084-.268.353-1.908.505-3.077.084-.686.168-1.338.185-1.455.034-.234.067-1.237.084-2.241.05-2.81-.05-4.381-.42-6.706-.185-1.171-.32-1.605-.774-2.542-.218-.452-.438-.954-.505-1.121-.067-.167-.202-.434-.303-.585-.202-.318-.943-1.688-1.111-2.058-.067-.15-.286-.568-.488-.92-.404-.72-1.615-2.593-2.34-3.61-.303-.418-.675-.988-.825-1.272-.2-.384-1.112-1.522-1.481-1.855-.101-.084-.387-.418-.639-.736-.521-.653-2.978-3.161-3.684-3.76-.286-.235-.673-.586-.858-.77-.421-.435-2.525-2.041-3.01-2.292-.202-.117-.489-.318-.639-.451-.32-.268-2.658-1.705-3.347-2.058-.319-.168-.707-.384-.858-.485-.32-.217-2.657-1.354-3.381-1.639-.32-.134-.724-.318-.893-.418-.32-.2-2.794-.971-3.413-1.07-.269-.05-.674-.15-.892-.218-.47-.15-2.592-.535-3.565-.652-.438-.05-.909-.133-1.077-.167-.32-.067-2.407-.267-3.448-.317-.757-.034-1.665-.067-2.005-.084-.674-.033-4.565.017-4.598.067m2.205 5.85c.858.084 1.987.234 2.507.318.52.083 1.229.2 1.565.25.674.117 3.23.719 3.752.888.218.067.623.184.893.25.606.15 2.34.719 2.96.97.269.1.674.234.892.3.541.168 2.373.87 2.776 1.054.168.084.538.234.824.334.572.2 2.322.987 2.675 1.204.152.084.505.251.791.367.572.234 2.322 1.138 2.641 1.355.134.084.454.284.707.434.539.318 2.322 1.472 2.59 1.672.117.084.405.284.639.434.538.334 2.188 1.505 2.39 1.706.084.084.32.25.522.384.489.318 1.882 1.454 2.171 1.772.118.134.32.318.455.418.32.234 1.631 1.371 1.733 1.505.05.05.235.234.405.401.32.334 1.498 1.472 1.665 1.606.084.067.286.267.455.434.32.335 1.413 1.506 1.565 1.673.05.067.219.267.37.434.32.368 1.313 1.606 1.464 1.823.067.1.235.318.37.485.287.35 1.111 1.539 1.246 1.789.067.134.219.368.337.518.286.368.96 1.455 1.077 1.738.05.134.168.368.252.518.186.318.791 1.489.892 1.722.05.1.135.334.185.501.118.318.554 1.288.673 1.506.05.1.118.334.152.518.084.368.42 1.188.555 1.355.05.05.101.234.118.384.033.318.235.954.353 1.121.05.084.101.251.118.384.034.318.185.87.287 1.037.05.084.084.267.084.401 0 .318.135.82.236.937.05.05.067.234.05.401-.033.318.034.703.118.82.034.05.051.234.034.4-.033.301.034.654.118.771.034.05.034.217.017.367-.05.284.017.602.118.703.05.05.05.217.017.367-.05.284.017.602.101.703.033.067.033.217 0 .35-.067.268.017.569.134.636.05.034.05.184.017.334-.067.267 0 .535.118.602.05.05.05.184.017.317-.067.25 0 .518.101.568.067.033.067.167.033.3-.066.25.017.485.118.518.084.033.084.15.033.267-.084.217-.017.418.118.434.067.017.067.134.017.25-.084.2-.017.384.101.4.084.017.084.117.033.218-.083.183-.016.35.101.35.085 0 .085.1.034.2-.085.167-.018.317.1.317.085 0 .085.084.034.167-.084.15-.017.284.101.284.084 0 .084.084.033.167-.083.15-.016.267.101.267.084 0 .084.067.033.15-.083.134-.016.234.101.234.084 0 .084.067.033.134-.083.117-.016.2.101.2.084 0 .084.05.033.117-.083.1-.016.167.101.167.084 0 .084.05.033.1-.083.084-.016.15.101.15.084 0 .084.034.033.084-.083.084-.016.134.101.134.084 0 .084.033.033.067-.083.067-.016.117.101.117.084 0 .084.033.033.067-.083.067-.016.1.101.1.084 0 .084.017.033.05-.083.05-.016.084.101.084.084 0 .084.016.033.033-.083.034-.016.067.101.067.084 0 .084.017.033.034-.083.033-.016.05.101.05.084 0 .084 0 .033.017-.083.017-.016.033.101.033.084 0 .084 0 .033 0-.083 0-.016.017.101.017.084 0 .084-.017.033 0-.083-.017-.016 0 .101 0 .084 0 .084-.017.033-.017-.083-.016-.016-.016.101-.016.084 0 .084-.017.033-.017-.083-.017-.016-.033.101-.033.084 0 .084-.017.033-.034-.083-.033-.016-.05.101-.05.084 0 .084-.016.033-.033-.083-.034-.016-.067.101-.067.084 0 .084-.033.033-.05-.083-.05-.016-.084.101-.084.084 0 .084-.033.033-.067-.083-.067-.016-.1.101-.1.084 0 .084-.033.033-.067-.083-.067-.016-.117.101-.117.084 0 .084-.034.033-.084-.083-.084-.016-.134.101-.134.084 0 .084-.033.033-.067-.083-.067-.016-.117.101-.117.084 0 .084-.034.033-.084-.083-.084-.016-.15.101-.15.084 0 .084-.05.033-.1-.083-.1-.016-.167.101-.167.084 0 .084-.05.033-.117-.083-.117-.016-.2.101-.2.084 0 .084-.067.033-.134-.083-.134-.016-.234.101-.234.084 0 .084-.067.033-.15-.083-.15-.016-.267.101-.267.084 0 .084-.084.033-.167-.083-.167-.016-.284.101-.284.084 0 .084-.084.033-.167-.083-.167-.016-.317.101-.317.084 0 .084-.1.033-.2-.083-.2-.016-.35.101-.35.084 0 .084-.117.033-.218-.083-.218-.016-.434.101-.434.084 0 .084-.133.033-.25-.083-.25-.016-.485.101-.518.084-.033.084-.15.033-.267-.083-.267-.016-.535.101-.602.084-.033.084-.167.033-.317-.083-.317-.016-.602.101-.636.084-.033.084-.184.033-.334-.083-.334-.016-.653.101-.703.084-.05.084-.2.033-.35-.083-.35-.016-.703.101-.771.084-.067.084-.217.033-.4-.083-.4-.016-.82.101-.937.084-.117.084-.284.033-.485-.083-.485-.016-.987.101-1.121.084-.134.084-.301.033-.552-.083-.552-.016-1.121.101-1.288.084-.167.084-.368.033-.736-.083-.736-.016-1.489.101-1.706.084-.217.084-.451.033-.903-.083-.903-.016-1.823.101-2.058.084-.234.084-.485.033-.954-.083-.954-.016-1.923.101-2.174.084-.251.084-.518.033-1.004-.083-1.004-.016-2.025.101-2.291.084-.267.084-.552.033-1.071-.083-1.071-.016-2.158.101-2.441.084-.284.084-.585.033-1.154-.083-1.154-.016-2.325.101-2.626.084-.3.084-.618.033-1.237-.083-1.237-.016-2.491.101-2.81.084-.318.084-.651.033-1.32-.083-1.32-.016-2.658.101-2.993.084-.334.084-.685.033-1.405-.083-1.405-.016-2.827.101-3.178.084-.351.084-.72.033-1.488-.083-1.488-.016-2.993.101-3.36.084-.368.084-.754.033-1.572-.083-1.572-.016-3.16.101-3.545.084-.384.084-.787.033-1.656-.083-1.656-.016-3.327.101-3.728.084-.4.084-.82.033-1.739-.083-1.739-.016-3.494.101-3.912.084-.418.084-.854.033-1.822-.083-1.822-.016-3.66.101-4.096.084-.435.084-.887.033-1.905-.083-1.905-.016-3.827.101-4.28.084-.451.084-.92.033-1.989-.083-1.989-.016-3.994.101-4.464.084-.47.084-.954.033-2.072-.083-2.072-.016-4.16.101-4.648.084-.487.084-.987.033-2.155-.083-2.155-.016-4.327.101-4.832.084-.505.084-1.021.033-2.238-.083-2.238-.016-4.494.101-5.016.084-.522.084-1.055.033-2.322-.083-2.322-.016-4.66.101-5.2.084-.54.084-1.088.033-2.405-.083-2.405-.016-4.827.101-5.384.084-.557.084-1.122.033-2.489-.083-2.489-.016-4.994.101-5.568.084-.574.084-1.155.033-2.572-.083-2.572-.016-5.16.101-5.752.084-.592.084-1.189.033-2.656-.083-2.656-.016-5.327.101-5.936.084-.609.084-1.222.033-2.739-.083-2.739-.016-5.494.101-6.12.084-.626.084-1.256.033-2.823-.083-2.823-.016-5.661.101-6.304.084-.643.084-1.289.033-2.906-.083-2.906-.016-5.828.101-6.488.084-.66.084-1.323.033-2.99-.083-2.99-.016-5.995.101-6.672.084-.677.084-1.356.033-3.073-.083-3.073-.016-6.162.101-6.856.084-.694.084-1.39.033-3.157-.083-3.157-.016-6.329.101-7.04.084-.711.084-1.423.033-3.24-.083-3.24-.016-6.496.101-7.224.084-.728.084-1.457.033-3.324-.083-3.324-.016-6.663.101-7.408.084-.745.084-1.49.033-3.407-.083-3.407-.016-6.83.101-7.592.084-.762.084-1.524.033-3.491-.083-3.491-.016-6.997.101-7.776.084-.779.084-1.557.033-3.574-.083-3.574-.016-7.164.101-7.96.084-.796.084-1.591.033-3.658-.083-3.658-.016-7.331.101-8.144.084-.813.084-1.624.033-3.741-.083-3.741-.016-7.498.101-8.328.084-.83.084-1.658.033-3.825-.083-3.825-.016-7.665.101-8.512.084-.847.084-1.691.033-3.908-.083-3.908-.016-7.832.101-8.696.084-.864.084-1.725.033-3.992-.083-3.992-.016-7.999.101-8.88.084-.881.084-1.758.033-4.075-.083-4.075-.016-8.166.101-9.064.084-.898.084-1.792.033-4.159-.083-4.159-.016-8.333.101-9.248.084-.915.084-1.825.033-4.242-.083-4.242-.016-8.5.101-9.432.084-.932.084-1.859.033-4.326-.083-4.326-.016-8.667.101-9.616.084-.949.084-1.892.033-4.409-.083-4.409-.016-8.834.101-9.8.084-.966.084-1.926.033-4.493-.083-4.493-.016-9.001.101-9.984.084-.983.084-1.959.033-4.576-.083-4.576-.016-9.168.101-10.168.084-1 .084-1.993.033-4.66-.083-4.66-.016-9.335.101-10.352.084-1.017.084-2.026.033-4.743-.083-4.743-.016-9.502.101-10.536.084-1.034.084-2.06.033-4.827-.083-4.827-.016-9.669.101-10.72.084-1.051.084-2.093.033-4.91-.083-4.91-.016-9.836.101-10.904.084-1.068.084-2.127.033-4.994-.083-4.994-.016-10.003.101-11.088.084-1.085.084-2.16.033-5.077-.083-5.077-.016-10.17.101-11.272.084-1.102.084-2.194.033-5.161-.083-5.161-.016-10.337.101-11.456.084-1.119.084-2.227.033-5.244-.083-5.244-.016-10.504.101-11.64.084-1.136.084-2.261.033-5.328-.083-5.328-.016-10.671.101-11.824.084-1.153.084-2.294.033-5.411-.083-5.411-.016-10.838.101-12.008.084-1.17.084-2.328.033-5.495-.083-5.495-.016-11.005.101-12.192.084-1.187.084-2.361.033-5.578-.083-5.578-.016-11.172.101-12.376.084-1.204.084-2.395.033-5.662-.083-5.662-.016-11.339.101-12.56.084-1.221.084-2.428.033-5.745-.083-5.745-.016-11.506.101-12.744.084-1.238.084-2.462.033-5.829-.083-5.829-.016-11.673.101-12.928.084-1.255.084-2.495.033-5.912-.083-5.912-.016-11.84.101-13.112.084-1.272.084-2.529.033-5.996-.083-5.996-.016-12.007.101-13.296.084-1.289.084-2.562.033-6.079-.083-6.079-.016-12.174.101-13.48.084-1.306.084-2.596.033-6.163-.083-6.163-.016-12.341.101-13.664.084-1.323.084-2.629.033-6.246-.083-6.246-.016-12.508.101-13.848.084-1.34.084-2.663.033-6.33-.083-6.33-.016-12.675.101-14.032.084-1.357.084-2.696.033-6.413-.083-6.413-.016-12.842.101-14.216.084-1.374.084-2.73.033-6.497-.083-6.497-.016-13.009.101-14.4.084-1.391.084-2.763.033-6.58-.083-6.58-.016-13.176.101-14.584.084-1.408.084-2.797.033-6.664-.083-6.664-.016-13.343.101-14.768.084-1.425.084-2.83.033-6.747-.083-6.747-.016-13.51.101-14.952.084-1.442.084-2.864.033-6.831-.083-6.831-.016-13.677.101-15.136.084-1.459.084-2.897.033-6.914-.083-6.914-.016-13.844.101-15.32.084-1.476.084-2.931.033-6.998-.083-6.998-.016-14.011.101-15.504.084-1.493.084-2.964.033-7.081-.083-7.081-.016-14.178.101-15.688.084-1.51.084-2.998.033-7.165-.083-7.165-.016-14.345.101-15.872.084-1.527.084-3.031.033-7.248-.083-7.248-.016-14.512.101-16.056.084-1.544.084-3.065.033-7.332-.083-7.332-.016-14.679.101-16.24.084-1.561.084-3.098.033-7.415-.083-7.415-.016-14.846.101-16.424.084-1.578.084-3.132.033-7.499-.083-7.499-.016-15.013.101-16.608.084-1.595.084-3.165.033-7.582-.083-7.582-.016-15.18.101-16.792.084-1.612.084-3.199.033-7.666-.083-7.666-.016-15.347.101-16.976.084-1.629.084-3.232.033-7.749-.083-7.749-.016-15.514.101-17.16.084-1.646.084-3.266.033-7.833-.083-7.833-.016-15.681.101-17.344.084-1.663.084-3.299.033-7.916-.083-7.916-.016-15.848.101-17.528.084-1.68.084-3.333.033-8"/><path fill="#81C147" d="M23.826 12.208c.218.067.623.184.893.25.606.15 2.34.719 2.96.97.269.1.674.234.892.3.541.168 2.373.87 2.776 1.054.168.084.538.234.824.334.572.2 2.322.987 2.675 1.204.152.084.505.251.791.367.572.234 2.322 1.138 2.641 1.355.134.084.454.284.707.434.539.318 2.322 1.472 2.59 1.672.117.084.405.284.639.434.538.334 2.188 1.505 2.39 1.706.084.084.32.25.522.384.489.318 1.882 1.454 2.171 1.772.118.134.32.318.455.418.32.234 1.631 1.371 1.733 1.505.05.05.235.234.405.401.32.334 1.498 1.472 1.665 1.606.084.067.286.267.455.434.32.335 1.413 1.506 1.565 1.673.05.067.219.267.37.434.32.368 1.313 1.606 1.464 1.823.067.1.235.318.37.485.287.35 1.111 1.539 1.246 1.789.067.134.219.368.337.518.286.368.96 1.455 1.077 1.738.05.134.168.368.252.518.186.318.791 1.489.892 1.722.05.1.135.334.185.501.118.318.554 1.288.673 1.506.05.1.118.334.152.518.084.368.42 1.188.555 1.355.05.05.101.234.118.384.033.318.235.954.353 1.121.05.084.101.251.118.384.034.318.185.87.287 1.037.05.084.084.267.084.401 0 .318.135.82.236.937.05.05.067.234.05.401-.033.318.034.703.118.82.034.05.051.234.034.4-.033.301.034.654.118.771.034.05.034.217.017.367-.05.284.017.602.118.703.05.05.05.217.017.367-.05.284.017.602.101.703.033.067.033.217 0 .35-.067.268.017.569.134.636.05.034.05.184.017.334-.067.267 0 .535.118.602.05.05.05.184.017.317-.067.25 0 .518.101.568.067.033.067.167.033.3-.066.25.017.485.118.518.084.033.084.15.033.267-.084.217-.017.418.118.434.067.017.067.134.017.25-.084.2-.017.384.101.4.084.017.084.117.033.218-.083.183-.016.35.101.35.085 0 .085.1.034.2-.085.167-.018.317.1.317.085 0 .085.084.034.167-.084.15-.017.284.101.284.084 0 .084.084.033.167-.083.15-.016.267.101.267.084 0 .084.067.033.15-.083.134-.016.234.101.234.084 0 .084.067.033.134-.083.117-.016.2.101.2.084 0 .084.05.033.117-.083.1-.016.167.101.167.084 0 .084.05.033.1-.083.084-.016.15.101.15.084 0 .084.034.033.084-.083.084-.016.134.101.134.084 0 .084.033.033.067-.083.067-.016.117.101.117.084 0 .084.033.033.067-.083.067-.016.1.101.1.084 0 .084.017.033.05-.083.05-.016.084.101.084.084 0 .084.016.033.033-.083.034-.016.067.101.067.084 0 .084.017.033.034-.083.033-.016.05.101.05.084 0 .084 0 .033.017-.083.017-.016.033.101.033.084 0 .084 0 .033 0-.083 0-.016.017.101.017.084 0 .084-.017.033 0-.083-.017-.016 0 .101 0"/><path fill="#FFFFFF" d="M45.5 44.5c-5.5 0-10-4.5-10-10s4.5-10 10-10 10 4.5 10 10-4.5 10-10 10z"/><path fill="#81C147" d="M45.5 26.5c4.4 0 8 3.6 8 8s-3.6 8-8 8-8-3.6-8-8 3.6-8 8-8m0-2c-5.5 0-10 4.5-10 10s4.5 10 10 10 10-4.5 10-10-4.5-10-10-10z"/><path fill="#4A90E2" d="M45.5 30.5c-2.2 0-4 1.8-4 4s1.8 4 4 4 4-1.8 4-4-1.8-4-4-4z"/></g></svg>